<svg xmlns="http://www.w3.org/2000/svg" height="16" width="15.9375" viewBox="0 0 510 512"><!--!Font Awesome Free 6.5.1 by @fontawesome - https://fontawesome.com License - https://fontawesome.com/license/free Copyright 2023 Fonticons, Inc.--><path d="M255.4 8C118.4 7.8 7.1 118.7 7 255.7c-.1 137 111 248.2 248 248.3 136.9 0 247.8-110.7 248-247.7S392.3 8.2 255.4 8zm145 266q-1.1 40.7-14 65t-43.5 35q-30.6 10.7-85.5 10.5h-4.6q-54.8 .2-85.4-10.5t-43.5-35q-12.9-24.4-14-65a224.8 224.8 0 0 1 0-30.7 418.4 418.4 0 0 1 3.6-43.9c1.9-13.4 3.6-22.6 5.4-32 1-4.9 1.3-6.4 1.8-8.5a5.1 5.1 0 0 1 4.9-3.9h.7l32 5a5.1 5.1 0 0 1 4.2 5 5 5 0 0 1 0 .8l-1.7 8.8q-2.4 13.3-4.8 33.7a380.6 380.6 0 0 0 -2.6 42.2q-.3 40.4 8.1 59.8a43.9 43.9 0 0 0 31.3 25.2A243 243 0 0 0 250 340.6h10.3a242.6 242.6 0 0 0 57.3-5.2 43.9 43.9 0 0 0 31.2-25.2q8.5-19.4 8.1-59.8a388 388 0 0 0 -2.6-42.2q-2.5-20.4-4.9-33.7l-1.7-8.8a5 5 0 0 1 0-.8 5 5 0 0 1 4.2-5l32-5h.8a5 5 0 0 1 4.9 3.9c.6 2.1 .8 3.6 1.8 8.5 1.8 9.6 3.5 18.8 5.4 32a415.7 415.7 0 0 1 3.6 43.9 228.1 228.1 0 0 1 0 30.7z"/></svg>